<svg version="1.0" xmlns="http://www.w3.org/2000/svg" viewBox="0 0 100 100"><path d="M50 21.5V23h-7v5h7v4h-7v5h24.8l.6 2.5.6 2.5h5.9l-.9-2.9c-.4-1.5-1.3-3.8-1.9-5L70.9 32H56v-4h5.8l5.7-.1-2.8-2.4-2.8-2.5h-5.7l-.6-1.5-.5-1.5H50v1.5zm-24.4 9L24 33h6.7l2.3-2.5 2.3-2.5h-8.1l-1.6 2.5zM22 36.9c-1.5 2.9-1.4 3.1 3.5 3.1h4.4l.3 14.2.3 14.2 3.4 2.3c1.9 1.3 4 2.3 4.7 2.3H40v-4.8l-2.5-1.6L35 65V35H23.1L22 36.9z"/><path d="M56.7 38.6c-.4.4-.7 3.8-.7 7.6V53H43v5h12.4l-7.2 7.3c-3.9 4-7.2 7.6-7.2 8 0 .4 1.5.7 3.3.7h3.3l5.9-6 5.9-6 3.1 3 3.1 3 1.9-2 1.8-2-2.8-3-2.8-2.9 4.8-.3 4.8-.3.8-2.3.8-2.2H62.1l-.3-7.3-.3-7.2-2-.3c-1.2-.2-2.4 0-2.8.4z"/><path d="M43 42v3h12v-6H43v3zm0 6.5V51h12v-5H43v2.5z"/></svg>